<svg width="78" height="91" viewBox="0 0 78 91" fill="none" xmlns="http://www.w3.org/2000/svg">
<path fill-rule="evenodd" clip-rule="evenodd" d="M57.46 49.2228C63.1216 49.2228 68.2509 51.5096 71.9687 55.2026C75.6989 58.8939 78 64.0001 78 69.6337C78 75.269 75.6989 80.3753 71.9829 84.0665L71.7494 84.281C68.0493 87.8475 63.0102 90.0464 57.46 90.0464C51.7895 90.0464 46.6532 87.7596 42.9389 84.0665C39.2229 80.3753 36.9218 75.269 36.9218 69.6337C36.9218 63.9984 39.2229 58.8939 42.9389 55.2026C46.6532 51.5096 51.7895 49.2228 57.46 49.2228ZM42.999 6.73988V16.2633C43.1741 18.5361 43.9718 20.322 45.3727 21.5102C46.823 22.7424 48.9914 23.4332 51.862 23.4841L58.569 23.4771L42.999 6.73988ZM59.1314 27.9189L51.8267 27.9119C47.8488 27.8504 44.7147 26.7869 42.4702 24.8815C40.1302 22.8935 38.8125 20.0741 38.5454 16.5797L38.526 16.2739V4.49172H11.1199C9.29102 4.49172 7.62667 5.23525 6.42395 6.43051C5.22122 7.62578 4.47306 9.27981 4.47306 11.0973V70.2436C4.47306 72.0541 5.22476 73.7082 6.42925 74.9052C7.63197 76.1004 9.29809 76.8475 11.1199 76.8475H32.24C32.6893 78.3925 33.2782 79.8796 33.9946 81.2928H11.1199C8.06354 81.2928 5.27959 80.0483 3.26503 78.048C1.25224 76.046 0 73.281 0 70.2436V11.0973C0 8.06346 1.25225 5.30028 3.26327 3.29997C5.28667 1.29087 8.06707 0.0463867 11.1199 0.0463867H41.8741C42.6011 0.0463867 43.2467 0.390905 43.6552 0.925259L63.0031 21.7264C63.3993 22.1535 63.5939 22.6914 63.5939 23.2293L63.5992 44.273C62.1524 43.9267 60.6596 43.7017 59.1314 43.6068V27.9189ZM18.4936 37.4969C17.259 37.4969 16.258 36.502 16.258 35.2751C16.258 34.0464 17.259 33.0515 18.4936 33.0515H45.1109C46.3454 33.0515 47.3483 34.0464 47.3483 35.2751C47.3483 36.502 46.3454 37.4969 45.1109 37.4969H18.4936ZM18.4936 50.2054C17.259 50.2054 16.258 49.2105 16.258 47.9818C16.258 46.7549 17.259 45.76 18.4936 45.76H43.7012C44.3574 45.76 44.9482 46.0413 45.3585 46.4895C43.4091 47.4994 41.5944 48.7477 39.9569 50.2054H18.4936ZM18.4936 62.9139C17.259 62.9139 16.258 61.919 16.258 60.6903C16.258 59.4634 17.259 58.4685 18.4936 58.4685H33.7399C33.0642 59.8835 32.5106 61.3706 32.0967 62.9139H18.4936ZM63.6894 59.1628C63.4188 58.9783 63.1093 58.8939 62.7962 58.9572C62.4849 59.0187 62.2161 59.1822 62.0303 59.4493L60.9691 60.9381C60.2528 60.62 59.3384 60.4108 58.5637 60.2983L58.2294 58.3578C58.1657 58.0291 57.9995 57.783 57.7518 57.5932C57.4812 57.4104 57.1912 57.3471 56.8604 57.4104L54.409 57.8428C54.0977 57.9043 53.8465 58.0502 53.6396 58.3174C53.4556 58.5845 53.3708 58.8763 53.4327 59.205L53.7457 60.9803C52.9905 61.295 52.2423 61.7485 51.6073 62.26L49.943 61.1227C49.6741 60.9381 49.3859 60.8555 49.0728 60.9171C48.7597 60.9803 48.4909 61.1456 48.3069 61.4127L46.8937 63.4148C46.7045 63.682 46.6231 63.9913 46.6868 64.3007C46.7469 64.6312 46.9114 64.879 47.1856 65.0636L48.6784 66.1165C48.3635 66.8231 48.1478 67.7441 48.0363 68.5088L46.0854 68.841C45.7512 68.9042 45.5035 69.0677 45.3143 69.3156C45.1268 69.5845 45.0667 69.871 45.1268 70.2015L45.5637 72.6359C45.6256 72.9471 45.7724 73.1931 46.0412 73.4006C46.3118 73.5869 46.6037 73.6695 46.9362 73.608L48.7208 73.2968C49.0498 74.0738 49.499 74.7734 50.0084 75.4448L48.8641 77.0725C48.6784 77.3414 48.5952 77.6314 48.6589 77.939C48.7208 78.2484 48.8888 78.5173 49.1577 78.7001L51.1899 80.1257C51.4605 80.312 51.7736 80.3735 52.0814 80.312C52.3944 80.2505 52.665 80.1063 52.8737 79.8392L53.9297 78.331C54.6584 78.6509 55.5516 78.8531 56.3404 78.9726L56.6729 80.9114C56.7331 81.2436 56.8993 81.4897 57.1487 81.676C57.4211 81.8606 57.7112 81.9221 58.0437 81.8606L60.4916 81.4264C60.8046 81.3649 61.0522 81.2208 61.2609 80.9536C61.4467 80.6846 61.528 80.3964 61.4661 80.0677L61.1566 78.2924C61.9472 77.9619 62.6335 77.5172 63.3144 77.011L64.9576 78.1465C65.2282 78.331 65.5165 78.4136 65.849 78.3504C66.1815 78.2924 66.4309 78.1271 66.6148 77.8564L68.0492 75.8333C68.235 75.5661 68.3004 75.255 68.235 74.9491C68.1748 74.6398 68.0298 74.3708 67.7609 74.1617L66.2434 73.1316C66.5582 72.425 66.774 71.5057 66.8854 70.7411L68.8381 70.4089C69.1706 70.3456 69.4182 70.1804 69.6093 69.9343C69.795 69.6671 69.8569 69.3771 69.795 69.0484L69.3581 66.6121C69.2962 66.301 69.1512 66.0549 68.8823 65.8493C68.6117 65.6612 68.3181 65.5786 67.9874 65.6419L66.201 65.953C65.8578 65.1796 65.4457 64.4853 64.9133 63.8279L66.0577 62.1756C66.2434 61.9067 66.3265 61.6184 66.2629 61.309C66.201 60.9997 66.0329 60.7307 65.7641 60.5444L63.7513 59.1435L63.6894 59.1628ZM57.4635 64.4325C60.3536 64.4325 62.6989 66.7616 62.6989 69.6355C62.6989 72.5076 60.3536 74.8366 57.4635 74.8366C54.5735 74.8366 52.2282 72.5076 52.2282 69.6355C52.2282 66.7616 54.5735 64.4325 57.4635 64.4325Z" fill="#354BA6"/>
</svg>
