<svg width="57" height="76" viewBox="0 0 57 76" fill="none" xmlns="http://www.w3.org/2000/svg">
<path d="M9.3409 0.82373H38.5273C39.0207 0.82373 39.4669 1.03639 39.7748 1.37664L56.4874 17.3874C56.8291 17.7145 57.0014 18.153 57.0014 18.59L57.0059 66.5299C57.0059 71.6219 52.7861 75.8237 47.6723 75.8237H9.3409C4.22121 75.8237 0.00585938 71.6278 0.00585938 66.5299V10.119C0.00585938 5.01378 4.21532 0.82373 9.3409 0.82373ZM40.5952 6.79129V11.2453C40.9486 15.8871 44.1035 17.6397 48.478 17.7145L51.9893 17.7086L40.5952 6.79129ZM53.6462 20.8662C53.415 20.985 53.1528 21.0524 52.8745 21.0524L48.45 21.0451C42.2963 20.9468 37.7422 17.908 37.2518 11.4873L37.2341 11.2453V4.16902H9.3409C6.04756 4.16902 3.36547 6.83969 3.36547 10.119V37.4812L53.6462 37.4636V20.8662ZM3.36547 40.7927V66.5299C3.36547 69.8034 6.05493 72.4784 9.3409 72.4784H47.6723C50.9362 72.4784 53.6462 69.7799 53.6462 66.5299V40.8103L3.36547 40.7927ZM9.4057 21.7886H13.8655C14.032 21.7886 14.1424 21.8986 14.1424 22.0644V34.9132C14.1424 35.0774 14.032 35.1889 13.8655 35.1889H9.4057C9.2378 35.1889 9.12586 35.0774 9.12586 34.9132V22.0644C9.07284 21.8986 9.2378 21.7886 9.4057 21.7886ZM17.8452 16.5148H22.3036C22.4715 16.5148 22.5805 16.6233 22.5805 16.7905V34.9132C22.5805 35.0774 22.4715 35.1889 22.3036 35.1889H17.8452C17.6803 35.1889 17.5683 35.0774 17.5683 34.9132V16.7905C17.5683 16.6233 17.6803 16.5148 17.8452 16.5148ZM43.1594 28.1185H47.6193C47.7872 28.1185 47.8976 28.2299 47.8976 28.3956V34.8574C47.8976 35.0217 47.7872 35.1302 47.6193 35.1302H43.1594C42.9959 35.1302 42.8869 35.0217 42.8869 34.8574V28.3956C42.8869 28.2842 42.9959 28.1185 43.1594 28.1185ZM26.2833 24.98H30.7431C30.9111 24.98 31.02 25.0899 31.02 25.2557V34.8574C31.02 35.0217 30.9111 35.1302 30.7431 35.1302H26.2833C26.1198 35.1302 26.0108 35.0217 26.0108 34.8574V25.2557C26.0108 25.1457 26.1198 24.98 26.2833 24.98ZM34.7199 22.7434H39.1797C39.3462 22.7434 39.4581 22.8593 39.4581 23.0206V34.9132C39.4581 35.0774 39.3462 35.1889 39.1797 35.1889H34.7199C34.5535 35.1889 34.443 35.0774 34.443 34.9132V23.0206C34.443 22.8593 34.5535 22.7434 34.7199 22.7434ZM29.7711 58.4828L38.6539 58.6397C38.6539 61.8134 37.0868 64.7275 34.4739 66.4962L29.7711 58.4828ZM29.1775 44.7951C31.266 44.9549 32.6755 45.2101 34.5608 46.1473C38.1679 48.0216 40.6776 51.7672 40.8853 56.0365L40.9369 56.7126H40.2579L29.9625 56.3987H29.3852L29.1775 44.7951ZM30.5369 55.1507L39.5789 55.4117C39.0398 50.2185 35.4018 47.0859 30.4324 46.0945L30.5369 55.1507ZM26.79 57.5617L31.8596 66.3055C30.2924 67.1899 28.5692 67.6607 26.79 67.6607C21.1975 67.6607 16.6507 63.1319 16.6507 57.5617C16.6507 52.15 20.9368 47.674 26.3717 47.4643L26.79 57.5617Z" fill="#9B2E9F"/>
</svg>
