<svg width="76" height="86" viewBox="0 0 76 86" fill="none" xmlns="http://www.w3.org/2000/svg">
<path fill-rule="evenodd" clip-rule="evenodd" d="M43.6089 48.8649H69.2728C70.9236 48.8649 72.5067 49.5207 73.6739 50.6879C74.8411 51.8552 75.4969 53.4383 75.4969 55.089V79.3974C75.4969 81.0482 74.8411 82.6313 73.6739 83.7985C72.5067 84.9658 70.9236 85.6215 69.2728 85.6215H43.6089C41.9582 85.6215 40.3751 84.9658 39.2078 83.7985C38.0406 82.6313 37.3849 81.0482 37.3849 79.3974V55.0683C37.3849 53.4175 38.0406 51.8344 39.2078 50.6672C40.3751 49.4999 41.9582 48.8442 43.6089 48.8442V48.8649ZM58.4153 20.1236C58.8679 20.252 59.2668 20.5235 59.5522 20.8975C59.8377 21.2715 59.9944 21.7278 59.999 22.1983V25.8566H65.4277C66.0539 25.8516 66.6748 25.9713 67.2543 26.2088C67.8337 26.4462 68.36 26.7967 68.8026 27.2398C69.6917 28.1376 70.189 29.351 70.1857 30.6146V42.2674H66.0363V30.6561C66.0374 30.4756 65.9679 30.3019 65.8427 30.172C65.711 30.0451 65.5345 29.9754 65.3517 29.9784H59.999V42.2605H55.6352V24.8331H37.4955C37.2053 24.8368 36.9173 24.7828 36.6481 24.6743C36.3789 24.5657 36.1339 24.4048 35.9274 24.2009C35.7209 23.997 35.557 23.754 35.4451 23.4862C35.3332 23.2185 35.2756 22.9311 35.2756 22.6409V4.97835H4.37656V71.0088H30.2687V75.3725H11.3268V80.8497C11.3257 81.0302 11.3952 81.2039 11.5204 81.3338C11.6503 81.459 11.8241 81.5285 12.0045 81.5275H30.2548V85.6284H12.0322C10.7686 85.6141 9.5607 85.1062 8.66651 84.2133C7.77232 83.3204 7.26271 82.1133 7.24655 80.8497V75.4002H3.92013C2.88331 75.4012 1.88845 74.9908 1.15388 74.2591C0.788462 73.8973 0.498751 73.4664 0.30165 72.9915C0.10455 72.5165 0.00400601 72.0071 0.00588524 71.4929V4.53575C0.00588443 4.02205 0.107179 3.5134 0.303973 3.03888C0.500767 2.56437 0.789198 2.13333 1.15276 1.77041C1.51632 1.40749 1.94788 1.11982 2.42274 0.923865C2.89759 0.72791 3.40643 0.627515 3.92013 0.628424H37.4955C37.8168 0.62771 38.1342 0.699469 38.4239 0.83836C38.7137 0.977251 38.9684 1.1797 39.1691 1.43064L58.4153 20.1028V20.1236ZM39.667 8.27711L52.7306 20.4694H39.667V8.27711ZM13.8371 36.3269C13.6485 36.3313 13.4627 36.3733 13.2906 36.4505C13.1184 36.5276 12.9634 36.6384 12.8346 36.7762C12.7057 36.914 12.6057 37.0762 12.5404 37.2532C12.475 37.4301 12.4457 37.6184 12.454 37.8068C12.4417 37.9959 12.4684 38.1855 12.5323 38.3638C12.5963 38.5421 12.6962 38.7054 12.8259 38.8435C12.9556 38.9816 13.1123 39.0916 13.2862 39.1667C13.4602 39.2417 13.6477 39.2803 13.8371 39.2799H39.425C39.613 39.2754 39.7982 39.2336 39.9699 39.1569C40.1416 39.0802 40.2963 38.9701 40.425 38.833C40.5537 38.6959 40.6539 38.5346 40.7197 38.3584C40.7854 38.1822 40.8155 37.9947 40.8081 37.8068C40.8214 37.6172 40.7955 37.4269 40.732 37.2478C40.6684 37.0686 40.5687 36.9045 40.4389 36.7656C40.3091 36.6267 40.1521 36.5161 39.9776 36.4406C39.8032 36.3652 39.615 36.3264 39.425 36.3269H13.8371ZM13.8371 46.8871C13.6524 46.8923 13.4707 46.9345 13.3026 47.0112C13.1344 47.0879 12.9834 47.1975 12.8583 47.3335C12.7333 47.4695 12.6367 47.6292 12.5744 47.8032C12.5121 47.9771 12.4853 48.1618 12.4955 48.3463C12.4814 48.533 12.5053 48.7206 12.5659 48.8978C12.6265 49.075 12.7224 49.2381 12.8478 49.3771C12.9733 49.5161 13.1256 49.6282 13.2957 49.7066C13.4658 49.785 13.65 49.828 13.8371 49.8331H30.2272V46.8871H13.8371ZM13.8371 57.4403C13.6524 57.4473 13.4709 57.4913 13.3034 57.5696C13.136 57.6479 12.9859 57.7591 12.8621 57.8964C12.7383 58.0337 12.6433 58.1945 12.5827 58.3691C12.5222 58.5438 12.4972 58.7289 12.5093 58.9133C12.4972 59.0978 12.5222 59.2829 12.5827 59.4575C12.6433 59.6322 12.7383 59.793 12.8621 59.9303C12.9859 60.0676 13.136 60.1787 13.3034 60.2571C13.4709 60.3354 13.6524 60.3794 13.8371 60.3864H30.2272V57.4403H13.8371ZM13.8371 25.7737C13.6477 25.7733 13.4602 25.8118 13.2862 25.8868C13.1123 25.9619 12.9556 26.0719 12.8259 26.21C12.6962 26.3481 12.5963 26.5114 12.5323 26.6897C12.4684 26.8681 12.4417 27.0576 12.454 27.2467C12.4417 27.4357 12.4684 27.6253 12.5323 27.8036C12.5963 27.982 12.6962 28.1452 12.8259 28.2833C12.9556 28.4215 13.1123 28.5315 13.2862 28.6065C13.4602 28.6816 13.6477 28.7201 13.8371 28.7197H28.9755C29.1596 28.7118 29.3403 28.6672 29.507 28.5885C29.6737 28.5097 29.8229 28.3985 29.946 28.2612C30.069 28.124 30.1634 27.9636 30.2236 27.7893C30.2838 27.6151 30.3085 27.4306 30.2963 27.2467C30.3085 27.0628 30.2838 26.8783 30.2236 26.704C30.1634 26.5298 30.069 26.3693 29.946 26.2321C29.8229 26.0949 29.6737 25.9836 29.507 25.9049C29.3403 25.8262 29.1596 25.7815 28.9755 25.7737H13.8371ZM13.8371 15.2204C13.6524 15.2274 13.4709 15.2714 13.3034 15.3497C13.136 15.428 12.9859 15.5391 12.8621 15.6765C12.7383 15.8138 12.6433 15.9746 12.5827 16.1492C12.5222 16.3239 12.4972 16.5089 12.5093 16.6934C12.4972 16.8779 12.5222 17.063 12.5827 17.2376C12.6433 17.4123 12.7383 17.5731 12.8621 17.7104C12.9859 17.8477 13.136 17.9588 13.3034 18.0372C13.4709 18.1155 13.6524 18.1595 13.8371 18.1665H22.1359C22.3201 18.1586 22.5008 18.1139 22.6674 18.0352C22.8341 17.9565 22.9834 17.8452 23.1064 17.708C23.2295 17.5708 23.3239 17.4103 23.384 17.2361C23.4442 17.0619 23.4689 16.8774 23.4568 16.6934C23.4689 16.5095 23.4442 16.325 23.384 16.1508C23.3239 15.9765 23.2295 15.8161 23.1064 15.6789C22.9834 15.5416 22.8341 15.4304 22.6674 15.3517C22.5008 15.2729 22.3201 15.2283 22.1359 15.2204H13.8371ZM57.0045 56.7142L59.9021 63.5606L67.288 64.2522C67.4035 64.263 67.5133 64.3074 67.6038 64.3798C67.6944 64.4522 67.7619 64.5495 67.7979 64.6597C67.8339 64.7699 67.8369 64.8883 67.8065 65.0002C67.7761 65.1121 67.7137 65.2127 67.6269 65.2896L62.0391 70.172L63.6919 77.3919C63.7212 77.542 63.6915 77.6975 63.6091 77.8263C63.5267 77.9551 63.3978 78.0472 63.2493 78.0835C63.1716 78.1022 63.0909 78.1044 63.0123 78.0901C62.9337 78.0759 62.859 78.0453 62.7929 78.0005L56.4443 74.2038L50.075 78.0143C50.0079 78.0544 49.9334 78.0808 49.856 78.092C49.7786 78.1032 49.6998 78.0991 49.624 78.0798C49.5482 78.0606 49.4769 78.0265 49.4143 77.9797C49.3517 77.9328 49.2989 77.8741 49.259 77.8068C49.2193 77.7424 49.1928 77.6707 49.1809 77.5959C49.169 77.5211 49.1721 77.4448 49.1898 77.3712L50.8427 70.1374L45.2548 65.255C45.1957 65.2041 45.1472 65.1419 45.1124 65.072C45.0775 65.0022 45.0569 64.9261 45.0517 64.8482C45.0466 64.7703 45.057 64.6921 45.0824 64.6183C45.1077 64.5445 45.1476 64.4765 45.1995 64.4182C45.2578 64.3594 45.3282 64.3141 45.4059 64.2854C45.4835 64.2567 45.5665 64.2454 45.649 64.2522L52.9796 63.5606L55.898 56.7349C55.9591 56.5905 56.0747 56.476 56.2198 56.4165C56.3649 56.3569 56.5276 56.357 56.6726 56.4168C56.8145 56.4795 56.928 56.5929 56.9907 56.7349L57.0045 56.7142Z" fill="#402487"/>
</svg>
